<?xml version="1.0" encoding="utf-8"?>
<!-- Generator: Adobe Illustrator 26.0.3, SVG Export Plug-In . SVG Version: 6.00 Build 0)  -->
<svg version="1.1" id="Vrstva_2_00000150809641478881332780000003601397164009466516_"
	 xmlns="http://www.w3.org/2000/svg" xmlns:xlink="http://www.w3.org/1999/xlink" x="0px" y="0px" viewBox="0 0 500 500"
	 style="enable-background:new 0 0 500 500;" xml:space="preserve">
<style type="text/css">
	.st0{fill:#FFF15C;}
</style>
<g>
	<polygon class="st0" points="157.1,277.9 157.1,303.4 239.3,350.4 240.5,389.3 234.2,375.6 214.7,375.4 215.1,396.1 286.1,396.1 
		286.1,376.2 261.8,375.8 260.8,338.2 	"/>
	<polygon class="st0" points="157.9,153.7 194.1,215.1 179.3,215.1 178.3,243.3 291.9,308.8 342.9,279.1 342.9,303.6 291.9,332.9 
		157.9,255.4 	"/>
	<polygon class="st0" points="221.6,152.8 250.4,103.9 277.6,152.8 261.3,152.9 260.5,239.6 292.7,258.5 322.3,241.6 322.3,212.6 
		307.7,212.6 342.9,153.7 342.9,254.1 292.7,282.7 239.1,252.1 239.3,153 	"/>
</g>
</svg>
